Coordinates
version=1
nRows=15
nColumns=42
inDegrees=yes

Units are S.I. units (second, meters, Newtons, ...)
If the header above contains a line with 'inDegrees', this indicates whether rotational values are in degrees (yes) or radians (no).

endheader
time	pelvis_tilt	pelvis_list	pelvis_rotation	pelvis_tx	pelvis_ty	pelvis_tz	hip_flexion_r	hip_adduction_r	hip_rotation_r	knee_angle_r	knee_adduction_r	knee_angle_r_beta	ankle_angle_r	subtalar_angle_r	mtp_angle_r	hip_flexion_l	hip_adduction_l	hip_rotation_l	knee_angle_l	knee_adduction_l	knee_angle_l_beta	ankle_angle_l	subtalar_angle_l	mtp_angle_l	lumbar_extension	lumbar_bending	lumbar_rotation	arm_flex_r	arm_add_r	arm_rot_r	elbow_flex_r	pro_sup_r	wrist_flex_r	wrist_dev_r	arm_flex_l	arm_add_l	arm_rot_l	elbow_flex_l	pro_sup_l	wrist_flex_l	wrist_dev_l
      0.22000000	      2.34434836	      0.19812988	      3.15903898	     -1.89498896	      0.94281985	      0.28064574	     19.71254879	     -5.93991845	    -18.24680222	     10.59840376	      3.48339934	      0.18497704	      5.32916451	     19.11230313	     -9.50992606	    -14.43021727	     -0.33283867	     -9.99169077	     12.20360721	     -2.12649737	      0.21299313	     21.67870786	     27.06301173	     -9.50992606	     -9.91006994	      2.74455793	     -6.56246051	    -10.60309439	     -9.09595562	     -1.58340477	     23.18621535	     90.00000001	      0.00000000	      0.00000000	      9.40158436	    -22.13086755	     21.83062262	     53.65194268	     90.00000001	      0.00000000	      0.00000000
      0.23000000	      2.18879389	      0.13921599	      3.28339759	     -1.88383011	      0.94247840	      0.28192575	     19.53909034	     -5.80435453	    -17.96758149	     11.01494408	      3.46258306	      0.19224704	      5.03526483	     19.14055408	     -9.50032091	    -14.72323881	     -0.54091356	     -9.75228366	     12.62318731	     -2.25818282	      0.22031618	     21.51476437	     26.99817894	     -9.50032091	     -9.65939049	      2.96059679	     -6.56640606	    -10.77974098	     -9.14868479	     -1.57128500	     23.20029087	     90.00000001	      0.00000000	      0.00000000	      8.93867692	    -21.91535260	     21.91073269	     53.61023669	     90.00000001	      0.00000000	      0.00000000
      0.24000000	      2.00124927	     -0.35458014	      3.44511530	     -1.87275251	      0.94254563	      0.28362613	     19.40158543	     -5.19053979	    -18.38114731	     11.40988410	      3.29492751	      0.19914004	      3.37185429	     19.08186947	     -9.46912023	    -14.76628077	     -1.41857483	     -9.75349552	     13.43049436	     -2.11962182	      0.23440635	     20.80957460	     26.63374618	     -9.46912023	     -9.38873793	      3.63489982	     -6.63550314	    -10.79722706	     -9.28724398	     -1.45130517	     23.32875290	     90.00000001	      0.00000000	      0.00000000	      8.31671483	    -21.73608903	     21.74804129	     53.72712262	     90.00000001	      0.00000000	      0.00000000
      0.25000000	      1.83647874	     -0.68498246	      3.54493395	     -1.86161472	      0.94298793	      0.28527010	     19.11749802	     -4.77013854	    -18.32870692	     11.64844761	      3.28363897	      0.20330376	      2.39106183	     19.04201110	     -9.43671209	    -14.78257074	     -2.02757336	     -9.65938507	     14.29858300	     -2.14215737	      0.24955735	     20.15952325	     26.34883120	     -9.43671209	     -9.14996273	      4.12641077	     -6.63560956	    -10.80810544	     -9.39399759	     -1.34223305	     23.36846305	     90.00000001	      0.00000000	      0.00000000	      7.65889400	    -21.48756426	     21.57826799	     53.74348261	     90.00000001	      0.00000000	      0.00000000
      0.26000000	      1.66181284	     -1.01518646	      3.60516132	     -1.85050027	      0.94381179	      0.28702396	     18.79107970	     -4.35815639	    -18.17472187	     11.83832053	      3.34107098	      0.20661767	      1.67386330	     18.90806294	     -9.40737632	    -14.66678127	     -2.65655306	     -9.56472723	     15.35912142	     -2.14132279	      0.26806724	     19.25071318	     25.97173837	     -9.40737632	     -8.91425475	      4.60219320	     -6.59807429	    -10.77246435	     -9.48198714	     -1.26904988	     23.38660547	     90.00000001	      0.00000000	      0.00000000	      6.98733232	    -21.22688142	     21.45534199	     53.61732497	     90.00000001	      0.00000000	      0.00000000
      0.27000000	      1.47791266	     -1.36995300	      3.59348235	     -1.83936683	      0.94500788	      0.28883267	     18.40197206	     -3.90324968	    -17.88645091	     11.92956904	      3.44251390	      0.20821026	      1.14680266	     18.67887427	     -9.37435745	    -14.41733921	     -3.28977468	     -9.49227520	     16.62649835	     -2.15637839	      0.29018714	     18.10310733	     25.46586183	     -9.37435745	     -8.67251052	      5.10431956	     -6.49312532	    -10.66426930	     -9.58265679	     -1.20160403	     23.36669113	     90.00000001	      0.00000000	      0.00000000	      6.29447156	    -20.90655541	     21.30846795	     53.35598173	     90.00000001	      0.00000000	      0.00000000
      0.28000000	      1.34296870	     -1.63311363	      3.55524428	     -1.82825120	      0.94656434	      0.29066316	     17.91068886	     -3.57847202	    -17.54585677	     12.02169034	      3.64860350	      0.20981808	      0.96738904	     18.53271255	     -9.34938188	    -14.09211635	     -3.85578917	     -9.26468443	     18.10234043	     -2.09900772	      0.31594544	     16.80793851	     24.96628066	     -9.34938188	     -8.49685055	      5.51161511	     -6.36808918	    -10.54298891	     -9.66454631	     -1.16706189	     23.37559249	     90.00000001	      0.00000000	      0.00000000	      5.62647844	    -20.61464530	     21.25744408	     53.02689720	     90.00000001	      0.00000000	      0.00000000
      0.29000000	      1.16891778	     -1.96073873	      3.46646047	     -1.81714114	      0.94840149	      0.29267166	     17.36173099	     -3.09892047	    -17.17034039	     11.91730111	      3.78419349	      0.20799614	      0.93964978	     18.35581340	     -9.31917581	    -13.51860624	     -4.50949919	     -9.20840044	     19.88825336	     -2.08231647	      0.34711550	     14.99626225	     24.16544116	     -9.31917581	     -8.27408776	      5.93784619	     -6.18247310	    -10.36993651	     -9.75509580	     -1.12568018	     23.31986451	     90.00000001	      0.00000000	      0.00000000	      4.90344960	    -20.26274596	     21.17148719	     52.50076117	     90.00000001	      0.00000000	      0.00000000
      0.30000000	      1.00703383	     -2.26097012	      3.28848049	     -1.80612476	      0.95046922	      0.29467702	     16.74315575	     -2.62279033	    -16.65752895	     11.72146144	      3.94893746	      0.20457810	      1.05957178	     18.17443279	     -9.28238331	    -12.82401243	     -5.10592641	     -9.06028952	     21.86783644	     -2.03442677	      0.38166575	     12.92028939	     23.18264475	     -9.28238331	     -8.08693408	      6.35086710	     -5.90911384	    -10.10127230	     -9.88142124	     -1.08559423	     23.21536991	     90.00000001	      0.00000000	      0.00000000	      4.21600347	    -19.82858013	     21.05374204	     51.79038928	     90.00000001	      0.00000000	      0.00000000
      0.31000000	      0.94958473	     -2.38271835	      3.15619657	     -1.79520083	      0.95272500	      0.29667030	     15.95029397	     -2.39336295	    -16.35418712	     11.51155613	      4.21715749	      0.20091456	      1.35429168	     18.17438937	     -9.25639089	    -12.05414001	     -5.56223569	     -8.67185114	     24.12709113	     -1.88040124	      0.42109718	     10.90048343	     22.35865965	     -9.25639089	     -8.04223477	      6.54237069	     -5.66087141	     -9.86497637	     -9.93433216	     -1.06261895	     23.24510604	     90.00000001	      0.00000000	      0.00000000	      3.60414966	    -19.54556492	     21.03379996	     51.22068259	     90.00000001	      0.00000000	      0.00000000
      0.32000000	      0.86717829	     -2.53859022	      2.95913257	     -1.78442380	      0.95497191	      0.29866053	     15.14824390	     -2.05989958	    -16.00954334	     11.17028451	      4.38739213	      0.19495824	      1.72723493	     18.28783289	     -9.22973798	    -11.04967879	     -6.03900264	     -8.40830702	     26.66628447	     -1.76161410	      0.46541446	      8.45473445	     21.21126291	     -9.22973798	     -7.97979206	      6.78278387	     -5.37347388	     -9.58822571	    -10.04553467	     -1.04600304	     23.26935421	     90.00000001	      0.00000000	      0.00000000	      2.97440057	    -19.20555697	     21.05221173	     50.53173245	     90.00000001	      0.00000000	      0.00000000
      0.33000000	      0.71264191	     -2.67424203	      2.65543914	     -1.77372424	      0.95731449	      0.30066286	     14.29738304	     -1.63030952	    -15.14581808	     10.51075451	      4.50673108	      0.18344727	      1.90626735	     17.77212795	     -9.12105900	    -10.01132098	     -6.36844867	     -7.39432241	     29.05984077	     -1.32213874	      0.50718990	      5.39763574	     17.69399918	     -9.12105900	     -7.83566306	      7.00559796	     -4.90175179	     -9.15548272	    -10.18744269	     -1.05298961	     22.90230623	     90.00000001	      0.00000000	      0.00000000	      2.56506361	    -18.42834253	     20.66977876	     48.72854853	     90.00000001	      0.00000000	      0.00000000
      0.34000000	      0.64132403	     -2.79741417	      2.39650356	     -1.76324213	      0.95932455	      0.30268053	     13.45111765	     -1.28189866	    -14.89693245	     10.06557058	      4.58465968	      0.17567735	      2.30417358	     18.09318686	     -9.07761822	     -8.68944568	     -6.79774875	     -7.23809090	     31.96366475	     -1.21879736	      0.55787119	      2.88781949	     16.12064380	     -9.07761822	     -7.80917914	      7.19658139	     -4.49261058	     -8.89866359	    -10.33792484	     -1.08163017	     23.09892675	     90.00000001	      0.00000000	      0.00000000	      1.90567469	    -18.14862621	     20.74900714	     48.19276331	     90.00000001	      0.00000000	      0.00000000
      0.35000000	      0.61580203	     -2.77316589	      2.17631741	     -1.75300820	      0.96128819	      0.30452504	     12.52294665	     -1.14882368	    -14.77083798	      9.56308068	      4.75453190	      0.16690724	      2.65409373	     18.39697563	     -8.98299656	     -7.39283800	     -6.95194397	     -6.24779680	     34.79495087	     -0.81237190	      0.60728646	      0.44693226	     12.72586144	     -8.98299656	     -7.87701306	      7.23140662	     -4.07905647	     -8.54985761	    -10.47388174	     -1.06798186	     23.28612760	     90.00000001	      0.00000000	      0.00000000	      1.51596215	    -17.75115972	     20.78611698	     47.02345907	     90.00000001	      0.00000000	      0.00000000
      0.36000000	      0.59955900	     -2.78299739	      1.96598470	     -1.74289056	      0.96291187	      0.30634095	     11.63742001	     -0.97302071	    -14.79617564	      9.14301703	      4.84916882	      0.15957575	      3.06202716	     18.93106809	     -8.90276695	     -5.93161578	     -7.16258357	     -5.78192855	     37.77478366	     -0.66185474	      0.65929435	     -1.49803785	      9.91091227	     -8.90276695	     -7.94670422	      7.30264342	     -3.74787400	     -8.23682010	    -10.66843406	     -1.01458822	     23.60153220	     90.00000001	      0.00000000	      0.00000000	      0.96490565	    -17.53672923	     20.84912074	     46.15865835	     90.00000001	      0.00000000	      0.00000000
